# xmcd
#
# Track frame offsets:
#	150
#	29011
#	55345
#	96104
#	120765
#	151560
#	183343
#	199153
#	221351
#	241762
#
# Disc length: 3456 seconds
#
# Revision: 0
# Processed by: cddbd v1.5.2PL0 Copyright (c) Steve Scherf et al.
# Submitted via: audiograbber 1.83.01
#
DISCID=770d7e0a
DTITLE=Al Bilali Soudan - Al Bilali Soudan
DYEAR=2012
DGENRE=
TTITLE0=Djaba
TTITLE1=Tagnanine
TTITLE2=Super Abollow
TTITLE3=Al Bilali Soundanp
TTITLE4=Akadeija
TTITLE5=Abar Niba
TTITLE6=Moulaye Haidara
TTITLE7=Babi Babi
TTITLE8=Tartit
TTITLE9=Abak Kabok
EXTD=
EXTT0=
EXTT1=
EXTT2=
EXTT3=
EXTT4=
EXTT5=
EXTT6=
EXTT7=
EXTT8=
EXTT9=
PLAYORDER=
